<svg width="150" height="150" viewBox="0 0 150 150" fill="none" xmlns="http://www.w3.org/2000/svg">
<g id="&#208;&#187;&#208;&#190;&#208;&#179;&#208;&#190; &#208;&#186;&#208;&#178;&#208;&#176;&#208;&#189;&#209;&#130; 1" clip-path="url(#clip0_255_569)">
<path id="Vector" d="M126.361 126.572C154.853 98.0806 154.853 51.8865 126.361 23.3948C97.8692 -5.09684 51.6751 -5.09684 23.1834 23.3948C-5.30822 51.8865 -5.30822 98.0806 23.1834 126.572C51.6751 155.064 97.8692 155.064 126.361 126.572Z" fill="white"/>
<path id="Vector_2" fill-rule="evenodd" clip-rule="evenodd" d="M75.0129 0.0594482C33.7001 0.0594482 0.0888672 33.6707 0.0888672 74.9835C0.0888672 116.296 33.7001 149.907 75.0129 149.907C116.326 149.907 149.937 116.296 149.937 74.9835C149.934 33.6707 116.322 0.0594482 75.0129 0.0594482ZM75.0129 4.3513C114.019 4.3513 145.642 35.9735 145.642 74.9802C145.642 113.99 114.019 145.612 75.0129 145.612C36.003 145.612 4.38072 113.99 4.38072 74.9802C4.38072 35.9735 36.003 4.3513 75.0129 4.3513Z" fill="#A7DCEB"/>
<path id="Vector_3" fill-rule="evenodd" clip-rule="evenodd" d="M74.8641 112.764C53.95 112.764 36.9346 95.7489 36.9346 74.8348C36.9346 53.9207 53.95 36.902 74.8641 36.902C95.7782 36.902 112.794 53.9174 112.794 74.8348C112.794 95.7489 95.7782 112.764 74.8641 112.764Z" fill="#891342"/>
<path id="Vector_4" fill-rule="evenodd" clip-rule="evenodd" d="M22.6553 42.3072L25.3051 39.5418L28.6024 42.7037L29.9835 41.2599L29.6861 34.9691L33.3337 31.1663L33.5187 39.9482L43.3051 39.6112L39.4625 43.6189L32.4251 43.5958L31.0407 45.0396L34.7214 48.5682L32.0716 51.3304L22.6553 42.3072Z" fill="#891342"/>
<path id="Vector_5" fill-rule="evenodd" clip-rule="evenodd" d="M50.0284 32.3623L56.1407 29.7951C56.8246 29.5077 57.0394 29.0617 56.785 28.4537C56.6264 28.0705 56.4282 27.8458 56.1936 27.7797C55.9557 27.7136 55.6748 27.75 55.3444 27.8888L49.2321 30.4559L50.0284 32.3623ZM48.0922 27.7467L54.3467 25.12C54.6242 25.0044 54.8158 24.8491 54.9149 24.6542C55.0174 24.4592 55.0074 24.2214 54.8885 23.9405C54.7663 23.6498 54.6044 23.4747 54.4028 23.4119C54.2013 23.3524 53.9568 23.3821 53.666 23.5044L47.4116 26.131L48.0922 27.7467ZM52.9028 20.3788C54.0063 19.9163 54.8786 19.7478 55.5229 19.8733C56.4843 20.065 57.2641 20.8744 57.8621 22.3018C58.1264 22.9328 58.2354 23.5077 58.1925 24.0297C58.1462 24.5517 57.9909 24.9614 57.7266 25.2555C58.992 25.3084 59.9204 26.0352 60.5119 27.4394C61.0207 28.652 61.1099 29.6299 60.7795 30.3634C60.4458 31.1002 59.6462 31.7313 58.3874 32.2599L47.7189 36.7401L42.6572 24.6806L52.9028 20.3788Z" fill="#891342"/>
<path id="Vector_6" fill-rule="evenodd" clip-rule="evenodd" d="M77.1807 19.7578L76.5893 19.7346L74.3426 24.1818L79.0541 24.3668L77.1807 19.7578ZM73.7149 16.6785L80.2865 16.9362L85.9296 30.2115L81.4627 30.0364L80.3658 27.7996L72.7865 27.5023L71.5177 29.6465L67.0508 29.4714L73.7149 16.6785Z" fill="#891342"/>
<path id="Vector_7" fill-rule="evenodd" clip-rule="evenodd" d="M98.6171 20.9373L101.796 23.0716L99.2515 26.8646L106.114 31.467L108.658 27.674L111.836 29.8084L104.558 40.6553L101.383 38.521L104.231 34.2754L97.3682 29.6696L94.5202 33.9185L91.3418 31.7842L98.6171 20.9373Z" fill="#891342"/>
<path id="Vector_8" fill-rule="evenodd" clip-rule="evenodd" d="M116.346 37.6288L119.128 35.7092L127.54 47.891L124.758 49.8138L121.646 45.3039L113.663 50.815L111.489 47.6663L119.472 42.1553L116.346 37.6288Z" fill="#891342"/>
<path id="Vector_9" fill-rule="evenodd" clip-rule="evenodd" d="M75.0132 4.3844C36.0859 4.3844 4.41406 36.0529 4.41406 74.9835C4.41406 113.911 36.0859 145.579 75.0132 145.579C113.94 145.579 145.609 113.911 145.609 74.9835C145.609 36.0562 113.937 4.3844 75.0132 4.3844ZM75.0132 8.67955C111.631 8.67955 141.317 38.3657 141.317 74.9835C141.317 111.601 111.631 141.287 75.0132 141.287C38.3953 141.287 8.70922 111.605 8.70922 74.9835C8.70922 38.3657 38.392 8.67955 75.0132 8.67955Z" fill="#891342"/>
<path id="Vector_10" fill-rule="evenodd" clip-rule="evenodd" d="M28.8736 102.78C27.9319 103.477 27.4595 103.986 27.4562 104.303C27.4529 104.623 27.9088 105.403 28.824 106.639C29.7425 107.881 30.357 108.552 30.6643 108.641C30.9716 108.733 31.596 108.43 32.5377 107.736C33.4859 107.032 33.9617 106.523 33.965 106.203C33.965 105.882 33.509 105.106 32.5971 103.867C31.6786 102.621 31.0641 101.954 30.7601 101.865C30.4496 101.775 29.8218 102.079 28.8736 102.78ZM34.1335 109.9C32.3394 111.225 31.1137 111.813 30.4595 111.657C29.7524 111.492 28.5729 110.29 26.9176 108.05C25.7084 106.414 24.9782 105.294 24.7238 104.693C24.4066 103.933 24.4529 103.275 24.8559 102.714C25.1632 102.284 25.9727 101.587 27.2778 100.619C29.0718 99.2941 30.2943 98.7059 30.9418 98.8513C31.6555 99.0099 32.8416 100.213 34.4936 102.453C36.1423 104.683 36.9418 106.163 36.8923 106.887C36.846 107.57 35.9275 108.575 34.1335 109.9Z" fill="#891342"/>
<path id="Vector_11" fill-rule="evenodd" clip-rule="evenodd" d="M39.4896 116.679L38.647 117.842L42.4202 120.585C42.8332 120.885 43.1768 120.856 43.4411 120.489C43.6195 120.248 43.6856 120.046 43.6426 119.891C43.5997 119.732 43.4708 119.577 43.2528 119.418L39.4896 116.679ZM35.168 118.054L40.5633 110.63L48.6614 116.514L47.3596 118.308L41.4323 114L40.6955 115.018L45.0799 118.206C45.8365 118.754 46.2594 119.336 46.3486 119.95C46.4378 120.565 46.2131 121.236 45.6812 121.969C45.0237 122.874 44.3497 123.373 43.6592 123.462C43.0677 123.542 42.4268 123.33 41.7363 122.825L35.168 118.054Z" fill="#891342"/>
<path id="Vector_12" fill-rule="evenodd" clip-rule="evenodd" d="M53.832 118.877L56.386 119.713L55.3882 122.759L60.8992 124.566L61.897 121.517L64.451 122.352L61.5996 131.052L59.049 130.216L60.1624 126.819L54.6514 125.012L53.538 128.412L50.9873 127.576L53.832 118.877Z" fill="#891342"/>
<path id="Vector_13" fill-rule="evenodd" clip-rule="evenodd" d="M68.957 123.456L71.6432 123.413L71.7456 129.717C71.6861 129.958 71.6233 130.193 71.5606 130.427C71.5539 130.513 71.5506 130.599 71.554 130.682C71.6101 130.682 71.663 130.626 71.7158 130.513C71.7654 130.401 71.815 130.289 71.8645 130.179L76.3447 123.337L80.739 123.268L80.8877 132.42L78.2015 132.463L78.0991 126.142C78.0991 126.135 78.1619 125.898 78.294 125.435C78.294 125.352 78.294 125.263 78.3006 125.181C78.2445 125.181 78.1883 125.24 78.1388 125.356C78.0892 125.471 78.0396 125.58 77.9901 125.686L73.5 132.542L69.1057 132.614L68.957 123.456Z" fill="#891342"/>
<path id="Vector_14" fill-rule="evenodd" clip-rule="evenodd" d="M85.3447 122.356L87.8888 121.497L88.9097 124.536L94.4075 122.686L93.3833 119.646L95.9306 118.791L98.8513 127.467L96.304 128.323L95.1641 124.933L89.6663 126.783L90.8095 130.17L88.2621 131.029L85.3447 122.356Z" fill="#891342"/>
<path id="Vector_15" fill-rule="evenodd" clip-rule="evenodd" d="M104.633 113.61C106.642 112.14 108.01 111.41 108.733 111.42C109.361 111.426 110.157 112.08 111.115 113.392L108.938 114.985C108.624 114.558 108.317 114.363 108.016 114.406C107.64 114.459 106.982 114.833 106.034 115.523C104.977 116.296 104.418 116.838 104.362 117.145C104.303 117.453 104.61 118.064 105.284 118.982C105.951 119.891 106.44 120.367 106.748 120.403C107.058 120.443 107.742 120.073 108.799 119.3C109.758 118.596 110.313 118.097 110.465 117.803C110.617 117.509 110.527 117.136 110.2 116.686L112.368 115.1C113.332 116.419 113.726 117.367 113.547 117.952C113.339 118.645 112.222 119.732 110.2 121.213C108.178 122.693 106.814 123.397 106.107 123.321C105.4 123.245 104.398 122.323 103.107 120.558C101.821 118.801 101.243 117.585 101.379 116.917C101.524 116.194 102.611 115.09 104.633 113.61Z" fill="#891342"/>
<path id="Vector_16" fill-rule="evenodd" clip-rule="evenodd" d="M112.156 106.616L113.736 104.442L116.329 106.325L117.155 105.188L116.346 100.847L118.52 97.8535L119.488 103.939L126.254 102.776L123.968 105.928L119.071 106.583L118.249 107.719L121.143 109.82L119.564 111.991L112.156 106.616Z" fill="#891342"/>
<path id="Vector_17" fill-rule="evenodd" clip-rule="evenodd" d="M89.4315 71.4119C89.0284 72.0231 88.5229 72.6872 87.9018 73.3711C88.0438 74.2401 88.1264 75.0363 88.1826 75.7268C88.2123 76.1134 87.9249 76.4537 87.5383 76.4834C87.5185 76.4834 87.4987 76.4868 87.4822 76.4868C87.1187 76.4868 86.8081 76.2059 86.7817 75.8392C86.752 75.4592 86.7156 75.0429 86.6628 74.6035C86.0548 75.1486 85.3676 75.6872 84.5945 76.1993C84.763 77.1773 84.8324 77.9273 84.8588 78.2907C84.8852 78.6773 84.5945 79.0143 84.2079 79.0407C84.1914 79.0407 84.1749 79.0407 84.1584 79.0407C83.7949 79.0407 83.4844 78.7599 83.4579 78.3865C83.4381 78.1189 83.3951 77.6266 83.2993 76.9857C82.6253 77.3623 81.8952 77.7158 81.1055 78.0363C81.3533 79.1828 81.4921 80.1806 81.535 80.848C81.5581 81.2379 81.2641 81.5716 80.8775 81.5914C80.861 81.5914 80.8478 81.5947 80.8346 81.5947C80.4678 81.5947 80.1573 81.3072 80.1341 80.9339C80.1044 80.4912 79.9987 79.6189 79.774 78.5253C78.1088 79.0837 76.209 79.5033 74.0449 79.7213C74.4447 81.3634 75.1551 83.0815 76.328 84.7533C79.2685 84.4328 86.1936 82.4537 89.3885 76.6949C89.5537 75.7995 89.6462 74.881 89.6462 73.9361C89.6495 73.0804 89.5736 72.2346 89.4315 71.4119Z" fill="#EAC52E"/>
<path id="Vector_18" fill-rule="evenodd" clip-rule="evenodd" d="M65.9864 65.0815C66.1946 65.0385 66.4159 65.065 66.6142 65.1707C68.765 65.5275 71.2926 66.5584 74.1373 68.7456C75.3895 68.6729 77.7551 68.2797 80.1472 67.4141C73.0073 59.7852 65.993 61.8403 65.0216 62.174C63.8851 63.0925 62.884 64.1729 62.0547 65.3755C63.1483 65.0749 64.4666 64.913 65.9864 65.0815Z" fill="#EAC52E"/>
<path id="Vector_19" fill-rule="evenodd" clip-rule="evenodd" d="M73.7213 77.8744C75.8623 77.6696 77.7224 77.2533 79.3314 76.7015C79.0274 75.6178 78.6244 74.4449 78.0924 73.3017C77.9272 72.9515 78.0792 72.5319 78.4294 72.37C78.7797 72.2048 79.2026 72.3568 79.3645 72.7103C79.8931 73.8469 80.3193 75.0528 80.6464 76.196C81.479 75.8425 82.2389 75.4526 82.9261 75.0363C82.6849 74.0121 82.338 72.8557 81.8391 71.6861C81.6871 71.3293 81.8523 70.9196 82.2125 70.7643C82.5693 70.6123 82.9823 70.7775 83.1343 71.1377C83.5869 72.2015 83.9206 73.2489 84.1684 74.2169C84.9944 73.6156 85.6916 72.9879 86.2797 72.3733C86.1112 71.6399 85.8898 70.8667 85.5891 70.0639C85.4537 69.7004 85.6387 69.2973 86.0021 69.1619C86.3689 69.0264 86.7686 69.2114 86.9074 69.5749C87.099 70.087 87.2543 70.5826 87.3898 71.0683C88.0572 70.1894 88.49 69.3998 88.7609 68.8381C88.3116 67.5958 87.7037 66.4262 86.9636 65.3557C83.6266 69.0264 77.3589 70.4042 74.4482 70.609C74.0616 71.7852 73.3347 74.5672 73.7213 77.8744Z" fill="#EAC52E"/>
<path id="Vector_20" fill-rule="evenodd" clip-rule="evenodd" d="M81.9816 66.6442C83.0686 66.1189 84.0995 65.4878 84.9552 64.718C85.2558 64.4471 85.5268 64.1563 85.7812 63.8557C83.3329 61.1233 79.9067 59.283 76.0576 58.8931C75.5521 58.8436 75.0367 58.8171 74.518 58.8171C72.6116 58.8171 70.7911 59.174 69.1094 59.8182C72.5224 59.9735 77.2867 61.3678 81.9816 66.6442Z" fill="#EAC52E"/>
<path id="Vector_21" fill-rule="evenodd" clip-rule="evenodd" d="M72.6836 69.9878C70.4006 68.2896 68.3918 67.424 66.6803 67.0638C65.8907 68.8513 64.8797 73.3447 65.8841 78.109C66.8224 82.5561 69.2244 86.2136 73.0173 88.9956C73.5129 89.0451 74.0151 89.0715 74.5206 89.0715C75.5052 89.0715 76.4634 88.9724 77.3951 88.794C69.7431 81.707 71.8841 72.5484 72.6836 69.9878Z" fill="#EAC52E"/>
<path id="Vector_22" fill-rule="evenodd" clip-rule="evenodd" d="M64.7473 66.8558C62.8376 66.8492 61.4434 67.467 60.6141 67.9923C59.8244 69.8194 59.3916 71.8348 59.3916 73.9461C59.3916 80.3723 63.4191 85.8701 69.0821 88.0606C66.5183 85.4009 64.8299 82.1994 64.0502 78.5022C63.0524 73.771 63.8354 69.2842 64.7473 66.8558Z" fill="#EAC52E"/>
<path id="Vector_23" fill-rule="evenodd" clip-rule="evenodd" d="M79.5762 88.1994C82.7249 87.0793 85.3945 84.945 87.1919 82.1927C84.03 84.7599 80.2536 85.989 77.6963 86.4549C78.2514 87.0496 78.8758 87.6344 79.5762 88.1994Z" fill="#EAC52E"/>
<path id="Vector_24" fill-rule="evenodd" clip-rule="evenodd" d="M18.7668 80.2699H16.0113V73.3216H15.5851L12.8527 75.8359L11.3857 73.913L14.5807 70.8866H18.7668V80.2699Z" fill="#891342"/>
<path id="Vector_25" fill-rule="evenodd" clip-rule="evenodd" d="M26.961 74.6763C28.048 74.6763 28.7187 74.6333 28.9764 74.5507C29.2341 74.4681 29.3662 74.2236 29.3662 73.8205C29.3662 73.434 29.2308 73.1961 28.9665 73.1036C28.6988 73.0111 28.0314 72.9648 26.961 72.9648C25.874 72.9648 25.1999 73.0078 24.9356 73.097C24.6713 73.1862 24.5392 73.4274 24.5392 73.8205C24.5392 74.2071 24.6746 74.445 24.9389 74.5375C25.2099 74.63 25.8839 74.6763 26.961 74.6763ZM29.5678 76.1763C29.3002 76.4571 28.8938 76.6487 28.3486 76.7545C27.8002 76.8602 27.0403 76.913 26.0623 76.913C24.3409 76.913 23.2242 76.7214 22.7187 76.3349C22.2066 75.9483 21.9521 75.1124 21.9521 73.8205C21.9521 72.4692 22.2032 71.6168 22.7021 71.26C23.2044 70.9064 24.3244 70.728 26.0623 70.728C28.8839 70.728 30.5722 70.9494 31.1207 71.3921C31.6691 71.8348 31.94 73.2291 31.94 75.5683C31.94 77.8844 31.6988 79.2754 31.2132 79.7412C30.7638 80.1807 29.4125 80.3987 27.1658 80.3987C24.6779 80.3987 23.1548 80.2203 22.6063 79.8602C22.1702 79.5694 21.9555 78.7633 21.9555 77.4417H24.5226C24.5226 77.7853 24.6977 77.9901 25.048 78.0595C25.3982 78.1289 26.1647 78.1652 27.3409 78.1652C28.309 78.1652 28.8905 78.0959 29.0821 77.9538C29.2737 77.8117 29.3695 77.3888 29.3695 76.6785C29.3695 76.6355 29.3894 76.5694 29.4323 76.4802C29.472 76.391 29.5182 76.2919 29.5678 76.1763Z" fill="#891342"/>
<path id="Vector_26" fill-rule="evenodd" clip-rule="evenodd" d="M121.014 76.4372C119.95 76.4372 119.289 76.4801 119.032 76.5594C118.777 76.642 118.652 76.8799 118.652 77.2764C118.652 77.6564 118.784 77.8876 119.045 77.9801C119.306 78.0693 119.963 78.1156 121.014 78.1156C122.081 78.1156 122.742 78.0726 123 77.9867C123.261 77.9008 123.386 77.663 123.386 77.2764C123.386 76.8964 123.257 76.6619 122.993 76.5726C122.732 76.4801 122.071 76.4372 121.014 76.4372ZM118.453 74.9636C118.718 74.6894 119.114 74.4978 119.653 74.3953C120.191 74.2896 120.941 74.2401 121.899 74.2401C123.591 74.2401 124.685 74.4284 125.183 74.8083C125.682 75.1883 125.933 76.011 125.933 77.2764C125.933 78.6013 125.679 79.4471 125.17 79.8072C124.695 80.1442 123.604 80.3094 121.896 80.3094C119.124 80.3094 117.469 80.0914 116.93 79.6586C116.392 79.2224 116.124 77.8546 116.124 75.5583C116.124 73.2852 116.355 71.924 116.811 71.4812C117.27 71.0385 118.605 70.8171 120.812 70.8171C123.254 70.8171 124.751 70.9956 125.293 71.3458C125.719 71.6299 125.93 72.4229 125.93 73.7246H123.409C123.409 73.3876 123.237 73.1861 122.891 73.1167C122.547 73.0473 121.794 73.0143 120.641 73.0143C119.689 73.0143 119.117 73.0837 118.929 73.2224C118.741 73.3612 118.645 73.7775 118.645 74.4746C118.645 74.5176 118.625 74.587 118.582 74.6762C118.549 74.7654 118.503 74.8612 118.453 74.9636Z" fill="#891342"/>
<path id="Vector_27" fill-rule="evenodd" clip-rule="evenodd" d="M133.526 74.6928C134.59 74.6928 135.268 74.6498 135.548 74.5639C135.833 74.478 135.975 74.2798 135.975 73.9692C135.975 73.5893 135.875 73.3679 135.674 73.3084C135.472 73.249 134.752 73.2159 133.513 73.2159C132.241 73.2159 131.504 73.2622 131.296 73.3514C131.091 73.4406 130.989 73.7578 130.989 74.3029H128.405C128.405 72.6047 128.66 71.5937 129.168 71.2666C129.628 70.9725 131.075 70.8271 133.513 70.8271C135.71 70.8271 137.091 70.989 137.653 71.3095C138.215 71.6333 138.496 72.4098 138.496 73.6421C138.496 75.1058 138.119 76.0441 137.362 76.4571C136.781 76.7776 135.496 76.9362 133.51 76.9362C132.403 76.9362 131.689 77.0023 131.369 77.1311C131.114 77.2335 130.986 77.4549 130.986 77.7886H138.367V80.1807H128.276V77.3393C128.276 76.3745 128.703 75.6906 129.548 75.2908C130.407 74.8943 131.729 74.6928 133.526 74.6928Z" fill="#891342"/>
<path id="Vector_28" fill-rule="evenodd" clip-rule="evenodd" d="M74.7653 35.478C53.0748 35.478 35.4316 53.1245 35.4316 74.8117C35.4316 96.5023 53.0781 114.145 74.7653 114.145C96.4526 114.145 114.102 96.4989 114.102 74.8117C114.102 53.1245 96.4559 35.478 74.7653 35.478ZM74.7653 37.7313C95.2433 37.7313 111.846 54.3337 111.846 74.8117C111.846 95.2897 95.2433 111.892 74.7653 111.892C54.2874 111.892 37.6849 95.2897 37.6849 74.8117C37.6849 54.3337 54.2874 37.7313 74.7653 37.7313Z" fill="#A7DCEB"/>
<path id="Vector_29" fill-rule="evenodd" clip-rule="evenodd" d="M50.7091 99.2115C43.7311 92.706 50.2994 75.6047 62.0516 62.0089C73.8005 48.4163 88.8665 41.8811 95.8412 48.3866C102.813 54.8954 98.3787 72.3833 86.6298 85.9824C74.8809 99.5782 57.6804 105.717 50.7091 99.2115ZM97.0373 44.9406C89.078 37.5133 71.7586 44.0716 58.3445 59.5903C44.9337 75.1025 40.513 93.7005 48.4723 101.131C56.4282 108.555 73.7542 102 87.165 86.4813C100.576 70.9626 104.997 52.3646 97.0373 44.9406Z" fill="#A7DCEB"/>
<path id="Vector_30" fill-rule="evenodd" clip-rule="evenodd" d="M96.7205 101.372C89.6434 108.159 73.7018 99.783 61.7315 86.2467C49.7612 72.707 45.0168 56.283 52.0972 49.4934C59.1809 42.7103 75.7271 48.8689 87.6974 62.4086C99.6709 75.9449 103.801 94.5826 96.7205 101.372ZM48.8725 47.9438C40.7877 55.6916 45.3141 74.4912 58.9727 89.9438C72.6379 105.393 90.2645 111.638 98.346 103.887C106.424 96.142 101.901 77.3392 88.2392 61.8865C74.5773 46.4372 56.9507 40.1927 48.8725 47.9438Z" fill="#A7DCEB"/>
<path id="Vector_31" fill-rule="evenodd" clip-rule="evenodd" d="M108.872 79.6618C107.567 89.7687 89.6791 94.163 71.6692 91.8403C53.6593 89.5143 39.5316 80.0121 40.8432 69.9019C42.1483 59.7951 59.1241 53.2632 77.134 55.5892C95.1472 57.9152 110.184 69.5517 108.872 79.6618ZM37.3146 70.903C35.8212 82.4438 51.2706 93.9449 71.8311 96.5947C92.3851 99.2444 110.26 92.0451 111.753 80.5077C113.246 68.9768 97.7937 57.4724 77.2397 54.8193C56.6791 52.1663 38.8047 59.3689 37.3146 70.903Z" fill="#A7DCEB"/>
</g>
<defs>
<clipPath id="clip0_255_569">
<rect width="150" height="150" fill="white"/>
</clipPath>
</defs>
</svg>
