<svg width="50" height="50" viewBox="0 0 50 50" fill="none" xmlns="http://www.w3.org/2000/svg">
<g clip-path="url(#clip0_193_23788)">
<path d="M0 24C0 12.6862 0 7.02944 3.51472 3.51472C7.02944 0 12.6862 0 24 0H26C37.3137 0 42.9705 0 46.4853 3.51472C50 7.02944 50 12.6862 50 24V26C50 37.3137 50 42.9705 46.4853 46.4853C42.9705 50 37.3137 50 26 50H24C12.6862 50 7.02944 50 3.51472 46.4853C0 42.9705 0 37.3137 0 26V24Z" fill="#454545"/>
<path d="M26.5183 36C14.9018 36 8.27608 28.1171 8 15H13.8189C14.01 24.6276 18.2997 28.7057 21.6976 29.5465V15H27.1769V23.3033C30.5323 22.9459 34.0571 19.1622 35.2464 15H40.7256C39.8124 20.1291 35.9898 23.9129 33.2715 25.4685C35.9898 26.7297 40.3435 30.03 42 36H35.9686C34.6731 32.006 31.4455 28.9159 27.1769 28.4955V36H26.5183Z" fill="white"/>
</g>
<defs>
<clipPath id="clip0_193_23788">
<rect width="50" height="50" fill="white"/>
</clipPath>
</defs>
</svg>
