<svg width="50" height="50" viewBox="0 0 50 50" fill="none" xmlns="http://www.w3.org/2000/svg">
<path d="M20 32.2891V17.7109L33 25L20 32.2891Z" fill="white"/>
<path d="M48.9451 13.3082C48.6606 12.2813 48.1035 11.345 47.3294 10.5931C46.5554 9.84113 45.5917 9.29987 44.5347 9.02347C40.642 8 25 8 25 8C25 8 9.35798 8 5.46534 9.02347C4.40832 9.29987 3.44457 9.84113 2.67055 10.5931C1.89652 11.345 1.33937 12.2813 1.05486 13.3082C0.328014 17.1649 -0.0247031 21.0793 0.00134356 25C-0.0247031 28.9207 0.328014 32.8352 1.05486 36.6918C1.33937 37.7187 1.89652 38.655 2.67055 39.4069C3.44457 40.1589 4.40832 40.7001 5.46534 40.9765C9.35798 42 25 42 25 42C25 42 40.642 42 44.5347 40.9765C45.5917 40.7001 46.5554 40.1589 47.3294 39.4069C48.1035 38.655 48.6606 37.7187 48.9451 36.6918C49.672 32.8352 50.0247 28.9207 49.9987 25C50.0247 21.0793 49.672 17.1649 48.9451 13.3082ZM20.0003 32.2857V17.7143L32.9817 25L20.0003 32.2857Z" fill="#454545"/>
</svg>
